<?xml version="1.0" encoding="UTF-8" standalone="no"?>
<svg
   xmlns:dc="http://purl.org/dc/elements/1.1/"
   xmlns:cc="http://creativecommons.org/ns#"
   xmlns:rdf="http://www.w3.org/1999/02/22-rdf-syntax-ns#"
   xmlns:svg="http://www.w3.org/2000/svg"
   xmlns="http://www.w3.org/2000/svg"
   xmlns:sodipodi="http://sodipodi.sourceforge.net/DTD/sodipodi-0.dtd"
   xmlns:inkscape="http://www.inkscape.org/namespaces/inkscape"
   version="1.1"
   viewBox="0 0 31.955 31.955"
   xml="preserve"
   id="svg6"
   sodipodi:docname="fan.svg"
   inkscape:version="1.0.2-2 (e86c870879, 2021-01-15)">
  <metadata
     id="metadata12">
    <rdf:RDF>
      <cc:Work
         rdf:about="">
        <dc:format>image/svg+xml</dc:format>
        <dc:type
           rdf:resource="http://purl.org/dc/dcmitype/StillImage" />
      </cc:Work>
    </rdf:RDF>
  </metadata>
  <defs
     id="defs10" />
  <sodipodi:namedview
     pagecolor="#ffffff"
     bordercolor="#666666"
     borderopacity="1"
     objecttolerance="10"
     gridtolerance="10"
     guidetolerance="10"
     inkscape:pageopacity="0"
     inkscape:pageshadow="2"
     inkscape:window-width="1920"
     inkscape:window-height="1051"
     id="namedview8"
     showgrid="false"
     inkscape:zoom="27.538726"
     inkscape:cx="8.9873437"
     inkscape:cy="15.9775"
     inkscape:window-x="-9"
     inkscape:window-y="-9"
     inkscape:window-maximized="1"
     inkscape:current-layer="svg6" />
  <path
     d="m13.288 23.896-1.768 5.207c2.567 0.829 5.331 0.886 7.926 0.17l-0.665-5.416c-1.771 0.63-3.714 0.643-5.493 0.039zm-5.168-10.774-5.645-0.859c-0.741 2.666-0.666 5.514 0.225 8.143l5.491-1.375c-0.739-1.893-0.765-4.002-0.071-5.909zm20.643-1.789-4.965 1.675c0.798 2.106 0.716 4.468-0.247 6.522l5.351 0.672c0.925-2.883 0.878-6.009-0.139-8.869zm-17.369-8.45 1.018 5.528c2.027-0.954 4.356-1.05 6.442-0.288l1.583-5.137c-2.914-1.046-6.109-1.08-9.043-0.103z"
     id="path2"
     style="fill:#4a39d0;fill-opacity:1" />
  <circle
     cx="15.979"
     cy="15.977"
     r="6.117"
     id="circle4"
     style="fill:#ff8a15;fill-opacity:1" />
</svg>
