<svg
                viewBox="0 0 202 190"
                fill="none"
                xmlns="http://www.w3.org/2000/svg"
              >
                <path
                  d="M27.5 12.5C19.2281 12.5 12.5 19.2281 12.5 27.5C12.5 28.8813 13.6187 30 15 30C16.3813 30 17.5 28.8813 17.5 27.5C17.5 21.9844 21.9875 17.5 27.5 17.5C28.8813 17.5 30 16.3813 30 15C30 13.6187 28.8813 12.5 27.5 12.5ZM15.0094 71.7453C15.0094 72.2375 15.1547 72.7172 15.4281 73.1266L19.2578 78.8828C19.7219 79.5797 20.5031 79.9984 21.3391 79.9984H33.6594C34.4969 79.9984 35.2781 79.5797 35.7406 78.8828L39.5703 73.1266C39.8422 72.7172 39.9875 72.2359 39.9891 71.7453L39.9969 64.9984H15.0031L15.0094 71.7453ZM27.5 0C11.5188 0 0 12.9641 0 27.5C0 34.4328 2.57031 40.7578 6.80625 45.5906C9.40625 48.5578 13.4844 54.7781 14.9969 59.9906V60H22.4969V59.9813C22.4953 59.2359 22.3844 58.4953 22.1609 57.7828C21.2875 55 18.5953 47.6625 12.4469 40.6469C9.2375 36.9859 7.52187 32.3422 7.50781 27.5C7.47656 15.9938 16.8313 7.5 27.5 7.5C38.5281 7.5 47.5 16.4719 47.5 27.5C47.5 32.3391 45.7438 37.0078 42.5547 40.6469C36.4438 47.6172 33.7391 54.9391 32.8516 57.75C32.6225 58.4727 32.5055 59.2262 32.5047 59.9844V60H40.0047V59.9922C41.5172 54.7781 45.5953 48.5578 48.1953 45.5922C52.4297 40.7578 55 34.4328 55 27.5C55 12.3125 42.6875 0 27.5 0Z"
                  fill="#FBF4FF"
                />
                <g clip-path="url(#clip0)">
                  <path
                    d="M178.645 18.749C174.53 18.749 170.722 19.4111 167.357 20.6328L169.175 2.59909C169.333 1.0698 167.987 -0.173855 166.452 0.0180399C154.777 1.48288 145.749 11.372 145.749 23.353C145.749 27.4677 146.411 31.2763 147.633 34.6411L129.599 32.8232C128.07 32.665 126.826 34.0112 127.018 35.5464C128.483 47.2212 138.372 56.249 150.353 56.249C154.468 56.249 158.276 55.5869 161.641 54.3652L159.823 72.3989C159.669 73.9267 161.011 75.1718 162.546 74.98C174.221 73.5151 183.249 63.626 183.249 51.645C183.249 47.5302 182.587 43.7217 181.365 40.3569L199.399 42.1748C200.928 42.3286 202.172 40.9868 201.98 39.4516C200.515 27.7768 190.626 18.749 178.645 18.749V18.749ZM164.499 42.1865C163.572 42.1865 162.666 41.9116 161.895 41.3965C161.124 40.8814 160.523 40.1494 160.168 39.2928C159.813 38.4363 159.721 37.4938 159.902 36.5845C160.082 35.6752 160.529 34.84 161.184 34.1844C161.84 33.5289 162.675 33.0824 163.584 32.9016C164.494 32.7207 165.436 32.8135 166.293 33.1683C167.149 33.5231 167.881 34.1239 168.396 34.8948C168.912 35.6656 169.186 36.5719 169.186 37.499C169.186 38.7422 168.693 39.9345 167.814 40.8136C166.934 41.6926 165.742 42.1865 164.499 42.1865V42.1865Z"
                    fill="#FBF4FF"
                  />
                </g>
                <path
                  d="M72.4167 120H6.58333C2.94878 120 0 122.939 0 126.562V170.312C0 173.936 2.94878 176.875 6.58333 176.875H32.9167L30.7222 183.438H20.8472C19.0231 183.438 17.5556 184.9 17.5556 186.719C17.5556 188.537 19.0231 190 20.8472 190H58.1528C59.9769 190 61.4444 188.537 61.4444 186.719C61.4444 184.9 59.9769 183.438 58.1528 183.438H48.2778L46.0833 176.875H72.4167C76.0512 176.875 79 173.936 79 170.312V126.562C79 122.939 76.0512 120 72.4167 120ZM70.2222 168.125H8.77778V128.75H70.2222V168.125Z"
                  fill="#FBF4FF"
                />
                <g clip-path="url(#clip1)">
                  <path
                    d="M200.125 177.501H190.75V138.296C190.75 135.101 188.227 132.501 185.125 132.501H172V140.001H183.25V185.001H200.125C201.161 185.001 202 184.162 202 183.126V179.376C202 178.34 201.161 177.501 200.125 177.501ZM163.591 125.119L141.091 130.948C139.421 131.381 138.25 132.934 138.25 134.718V177.501H128.875C127.839 177.501 127 178.34 127 179.376V183.126C127 184.162 127.839 185.001 128.875 185.001H168.25V128.889C168.25 126.36 165.958 124.505 163.591 125.119V125.119ZM157.938 158.751C156.385 158.751 155.125 157.072 155.125 155.001C155.125 152.93 156.385 151.251 157.938 151.251C159.49 151.251 160.75 152.93 160.75 155.001C160.75 157.072 159.49 158.751 157.938 158.751Z"
                    fill="#FBF4FF"
                  />
                </g>
              </svg>