<svg
                width="155"
                height="186"
                viewBox="0 0 155 186"
                fill="none"
                xmlns="http://www.w3.org/2000/svg"
              >
                <path
                  d="M132.811 137.188C130.794 124.804 126.037 116.109 120.5 116.109C114.963 116.109 110.206 124.804 108.189 137.188H132.811ZM107.145 150.5C107.145 153.579 107.312 156.532 107.604 159.375H133.382C133.674 156.532 133.841 153.579 133.841 150.5C133.841 147.421 133.674 144.468 133.382 141.625H107.604C107.312 144.468 107.145 147.421 107.145 150.5ZM152.315 137.188C148.336 127.772 140.282 120.491 130.335 117.552C133.73 122.239 136.067 129.297 137.291 137.188H152.315ZM110.651 117.552C100.718 120.491 92.6496 127.772 88.6849 137.188H103.709C104.919 129.297 107.256 122.239 110.651 117.552V117.552ZM153.804 141.625H137.847C138.14 144.537 138.306 147.519 138.306 150.5C138.306 153.481 138.14 156.463 137.847 159.375H153.79C154.555 156.532 154.986 153.579 154.986 150.5C154.986 147.421 154.555 144.468 153.804 141.625ZM102.694 150.5C102.694 147.519 102.86 144.537 103.153 141.625H87.1964C86.4452 144.468 86 147.421 86 150.5C86 153.579 86.4452 156.532 87.1964 159.375H103.139C102.86 156.463 102.694 153.481 102.694 150.5V150.5ZM108.189 163.812C110.206 176.196 114.963 184.891 120.5 184.891C126.037 184.891 130.794 176.196 132.811 163.812H108.189ZM130.349 183.448C140.282 180.509 148.35 173.228 152.329 163.812H137.305C136.081 171.703 133.744 178.761 130.349 183.448ZM88.6849 163.812C92.6635 173.228 100.718 180.509 110.665 183.448C107.27 178.761 104.933 171.703 103.709 163.812H88.6849V163.812Z"
                  fill="#FBF4FF"
                />
                <g clip-path="url(#clip0)">
                  <path
                    d="M44.1667 4.4375C44.1667 3.2606 43.7013 2.13191 42.8731 1.29971C42.0448 0.467521 40.9214 0 39.75 0C38.5786 0 37.4552 0.467521 36.6269 1.29971C35.7987 2.13191 35.3333 3.2606 35.3333 4.4375V17.75H44.1667V4.4375ZM50.7917 22.1875H2.20833C1.62265 22.1875 1.06095 22.4213 0.646806 22.8374C0.232663 23.2535 0 23.8178 0 24.4062L0 28.8438C0 29.4322 0.232663 29.9965 0.646806 30.4126C1.06095 30.8287 1.62265 31.0625 2.20833 31.0625H4.41667V35.5C4.41745 40.6144 6.17602 45.5717 9.39507 49.5336C12.6141 53.4955 17.0961 56.2191 22.0833 57.2437V71H30.9167V57.2437C35.9039 56.2191 40.3859 53.4955 43.6049 49.5336C46.824 45.5717 48.5826 40.6144 48.5833 35.5V31.0625H50.7917C51.3774 31.0625 51.9391 30.8287 52.3532 30.4126C52.7673 29.9965 53 29.4322 53 28.8438V24.4062C53 23.8178 52.7673 23.2535 52.3532 22.8374C51.9391 22.4213 51.3774 22.1875 50.7917 22.1875ZM17.6667 4.4375C17.6667 3.2606 17.2013 2.13191 16.3731 1.29971C15.5448 0.467521 14.4214 0 13.25 0C12.0786 0 10.9552 0.467521 10.1269 1.29971C9.29866 2.13191 8.83333 3.2606 8.83333 4.4375V17.75H17.6667V4.4375Z"
                    fill="#FBF4FF"
                  />
                </g>
              </svg>