<svg id="Layer_1" data-name="Layer 1" xmlns="http://www.w3.org/2000/svg" viewBox="0 0 250.11 242.4433"><defs><style>.cls-1{fill:#ff69b4;}.cls-2{fill:#7f00ff;}.cls-3{fill:#ff6700;}</style></defs><path class="cls-1" d="M125,10a59.9955,59.9955,0,0,0-.4128,119.99c.0744-.0028.1452-.0109.2213-.0109.1211,0,.2354.01.3519.0173A59.9981,59.9981,0,0,0,125,10Z" transform="translate(0.11)"/><path class="cls-1" d="M125,0,93.0316,19.2166l63.94.0019C148.782,12.4551,137.9945,6.0678,125,0Z" transform="translate(0.11)"/><path class="cls-1" d="M156.9712,19.2185l-31.6087,110.744c52.6-5.099,35.9312-33.8542,97.7652-9.9625C223.1277,120,188.9424,38.437,156.9712,19.2185Z" transform="translate(0.11)"/><circle class="cls-2" cx="61.0761" cy="179.9421" r="60"/><path class="cls-2" d="M.0657,214.4551l32.48,18.338L1.0228,177.1644A309.8,309.8,0,0,0,.0657,214.4551Z" transform="translate(0.11)"/><path class="cls-2" d="M56.0853,69.9184S1.98,139.8738,1.0228,177.1644l111.9323-27.1018C82.5849,106.8145,65.7862,135.4939,56.0853,69.9184Z" transform="translate(0.11)"/><circle class="cls-3" cx="190.1017" cy="180.0083" r="60"/><path class="cls-3" d="M249.5185,216.84l.4791-37.2965-33.6443,54.3721A145.4946,145.4946,0,0,0,249.5185,216.84Z" transform="translate(0.11)"/><path class="cls-3" d="M138.81,148.7663c-23.34,47.4131,9.8833,48.3682-42.9687,88.38,0,0,87.3468,13.8451,120.5121-3.23Z" transform="translate(0.11)"/><path class="cls-1" d="M154.1357,23.2464a1.2618,1.2618,0,0,1,.24.148l-.506-.3909a3.5166,3.5166,0,0,1,.2723.2424,2.5706,2.5706,0,0,0,3.5355,0l.391-.5059a2.489,2.489,0,0,0,.3413-1.2618l-.0893-.6646a2.4974,2.4974,0,0,0-.643-1.1032c-.0792-.0759-.1588-.1518-.2444-.2205-.0922-.074-.1883-.1459-.2809-.2174-.0909-.07-.1862-.1468-.2812-.2168-.0214-.0157-.0431-.0309-.0653-.0454a1.12,1.12,0,0,0-.1466-.0812,1.8606,1.8606,0,0,0-.9295-.2967,2.2449,2.2449,0,0,0-1.8471.4921,1.89,1.89,0,0,0-.6438.7014l-.2521.5972a2.5191,2.5191,0,0,0,0,1.3292l.2521.5972a2.5117,2.5117,0,0,0,.8968.8969Z" transform="translate(0.11)"/></svg>