<svg width="80" height="60" viewBox="0 0 80 60" fill="none" xmlns="http://www.w3.org/2000/svg">
<path d="M8.0625 30.25V37.3125H5.875C5.29484 37.3125 4.73844 37.082 4.3282 36.6718C3.91797 36.2616 3.6875 35.7052 3.6875 35.125V5.875C3.6875 5.29484 3.91797 4.73844 4.3282 4.3282C4.73844 3.91797 5.29484 3.6875 5.875 3.6875H74.125C74.7052 3.6875 75.2616 3.91797 75.6718 4.3282C76.082 4.73844 76.3125 5.29484 76.3125 5.875V35.125C76.3125 35.7052 76.082 36.2616 75.6718 36.6718C75.2616 37.082 74.7052 37.3125 74.125 37.3125H62.1875V30.25V30H61.9375H8.3125H8.0625V30.25ZM74.125 0.75H5.875C4.51577 0.75 3.2122 1.28995 2.25108 2.25108C1.28995 3.2122 0.75 4.51577 0.75 5.875V35.125C0.75 36.4842 1.28995 37.7878 2.25108 38.7489C3.2122 39.71 4.51577 40.25 5.875 40.25H74.125C75.4842 40.25 76.7878 39.71 77.7489 38.7489C78.71 37.7878 79.25 36.4842 79.25 35.125V5.875C79.25 4.51577 78.71 3.2122 77.7489 2.25108C76.7878 1.28995 75.4842 0.75 74.125 0.75ZM11 32.9375H59.25V37.3125H11V32.9375Z" fill="white" stroke="white" stroke-width="0.5"/>
<path d="M8.5625 8.5625H71.4375V10.5H8.5625V8.5625Z" fill="white" stroke="white" stroke-width="0.5"/>
<path d="M8.5625 15.875H71.4375V17.8125H8.5625V15.875Z" fill="white" stroke="white" stroke-width="0.5"/>
<path d="M8.5625 23.1875H71.4375V25.125H8.5625V23.1875Z" fill="white" stroke="white" stroke-width="0.5"/>
<path d="M17 42.5V54.5254C15 61.5 8.5 58 7 54.5254" stroke="white" stroke-width="2"/>
<path d="M47 42.5V54.5254C49 61.5 55.5 58 57 54.5254" stroke="white" stroke-width="2"/>
<path d="M32 42.5V59.5" stroke="white" stroke-width="2"/>
<path d="M69.25 35.375C70.7343 35.375 71.9375 34.1718 71.9375 32.6875C71.9375 31.2032 70.7343 30 69.25 30C67.7657 30 66.5625 31.2032 66.5625 32.6875C66.5625 34.1718 67.7657 35.375 69.25 35.375Z" fill="white" stroke="white" stroke-width="0.5"/>
</svg>
