<svg width="40" height="58" viewBox="0 0 40 58" fill="none" xmlns="http://www.w3.org/2000/svg">
<g filter="url(#filter0_d)">
<path d="M28.7273 0H11.2727C9.34459 0.00230961 7.49609 0.769282 6.13268 2.13268C4.76928 3.49608 4.00231 5.34459 4 7.27273V42.1818C4.00231 44.11 4.76928 45.9585 6.13268 47.3219C7.49609 48.6853 9.34459 49.4523 11.2727 49.4546H28.7273C30.6554 49.4523 32.5039 48.6853 33.8673 47.3219C35.2307 45.9585 35.9977 44.11 36 42.1818V7.27273C35.9977 5.34459 35.2307 3.49608 33.8673 2.13268C32.5039 0.769282 30.6554 0.00230961 28.7273 0ZM33.0909 42.1818C33.0909 43.3391 32.6312 44.4491 31.8128 45.2674C30.9945 46.0857 29.8846 46.5455 28.7273 46.5455H11.2727C10.1154 46.5455 9.00551 46.0857 8.18717 45.2674C7.36883 44.4491 6.90909 43.3391 6.90909 42.1818V7.27273C6.90909 6.11542 7.36883 5.00551 8.18717 4.18717C9.00551 3.36883 10.1154 2.90909 11.2727 2.90909H28.7273C29.8846 2.90909 30.9945 3.36883 31.8128 4.18717C32.6312 5.00551 33.0909 6.11542 33.0909 7.27273V42.1818Z" fill="white"/>
<path d="M20.6093 17.9798C22.3922 17.9763 24.1581 18.3366 25.8048 19.0397C27.4514 19.7429 28.9462 20.775 30.2025 22.0763L31.5736 20.6659C30.1352 19.1822 28.4263 18.005 26.5449 17.2017C24.6634 16.3985 22.6463 15.985 20.6093 15.985C18.5722 15.985 16.5551 16.3985 14.6737 17.2017C12.7922 18.005 11.0833 19.1822 9.6449 20.6659L11.016 22.0763C12.2724 20.775 13.7671 19.7429 15.4138 19.0397C17.0604 18.3366 18.8263 17.9763 20.6093 17.9798Z" fill="white"/>
<path d="M27.9188 23.111C25.8176 20.8883 22.9696 19.6398 20.0001 19.6398C17.0307 19.6398 14.1826 20.8883 12.0814 23.111L13.3973 24.5129C15.1489 22.6586 17.5239 21.617 20.0001 21.617C22.4764 21.617 24.8513 22.6586 26.6029 24.5129L27.9188 23.111Z" fill="white"/>
<path d="M25.4823 25.574C24.7624 24.8513 23.9077 24.2781 22.9671 23.887C22.0264 23.4959 21.0183 23.2946 20.0001 23.2946C18.982 23.2946 17.9738 23.4959 17.0332 23.887C16.0925 24.2781 15.2379 24.8513 14.5179 25.574L15.8882 26.9494C16.4282 26.4073 17.0692 25.9773 17.7748 25.684C18.4803 25.3906 19.2365 25.2396 20.0001 25.2396C20.7638 25.2396 21.52 25.3906 22.2255 25.684C22.931 25.9773 23.5721 26.4073 24.112 26.9494L25.4823 25.574Z" fill="white"/>
<path d="M16.9545 29.995C16.9545 30.5974 17.1331 31.1863 17.4678 31.6871C17.8024 32.188 18.2781 32.5783 18.8346 32.8089C19.3911 33.0394 20.0035 33.0997 20.5943 32.9822C21.1851 32.8647 21.7278 32.5746 22.1537 32.1486C22.5797 31.7227 22.8697 31.18 22.9873 30.5892C23.1048 29.9984 23.0445 29.386 22.8139 28.8295C22.5834 28.273 22.1931 27.7973 21.6922 27.4627C21.1913 27.128 20.6025 26.9494 20.0001 26.9494C19.1924 26.9494 18.4177 27.2703 17.8465 27.8414C17.2754 28.4126 16.9545 29.1873 16.9545 29.995ZM21.0153 29.995C21.0153 30.1958 20.9558 30.3921 20.8442 30.5591C20.7327 30.726 20.5741 30.8561 20.3886 30.933C20.2031 31.0098 19.999 31.0299 19.8021 30.9908C19.6051 30.9516 19.4242 30.8549 19.2823 30.7129C19.1403 30.5709 19.0436 30.39 19.0044 30.1931C18.9652 29.9962 18.9853 29.792 19.0622 29.6065C19.139 29.421 19.2691 29.2625 19.4361 29.1509C19.6031 29.0394 19.7993 28.9798 20.0001 28.9798C20.2694 28.9798 20.5276 29.0868 20.718 29.2772C20.9084 29.4676 21.0153 29.7258 21.0153 29.995Z" fill="white"/>
</g>
<defs>
<filter id="filter0_d" x="0" y="0" width="40" height="57.4546" filterUnits="userSpaceOnUse" color-interpolation-filters="sRGB">
<feFlood flood-opacity="0" result="BackgroundImageFix"/>
<feColorMatrix in="SourceAlpha" type="matrix" values="0 0 0 0 0 0 0 0 0 0 0 0 0 0 0 0 0 0 127 0"/>
<feOffset dy="4"/>
<feGaussianBlur stdDeviation="2"/>
<feColorMatrix type="matrix" values="0 0 0 0 0 0 0 0 0 0 0 0 0 0 0 0 0 0 0.25 0"/>
<feBlend mode="normal" in2="BackgroundImageFix" result="effect1_dropShadow"/>
<feBlend mode="normal" in="SourceGraphic" in2="effect1_dropShadow" result="shape"/>
</filter>
</defs>
</svg>
