<?xml version="1.0" encoding="UTF-8" standalone="no"?>
<svg
   xmlns:dc="http://purl.org/dc/elements/1.1/"
   xmlns:cc="http://creativecommons.org/ns#"
   xmlns:rdf="http://www.w3.org/1999/02/22-rdf-syntax-ns#"
   xmlns:svg="http://www.w3.org/2000/svg"
   xmlns="http://www.w3.org/2000/svg"
   xmlns:sodipodi="http://sodipodi.sourceforge.net/DTD/sodipodi-0.dtd"
   xmlns:inkscape="http://www.inkscape.org/namespaces/inkscape"
   id="Layer_1"
   data-name="Layer 1"
   viewBox="0 0 250.11 242.4433"
   version="1.1"
   sodipodi:docname="Logo.svg"
   inkscape:version="1.0.2-2 (e86c870879, 2021-01-15)">
  <metadata
     id="metadata29">
    <rdf:RDF>
      <cc:Work
         rdf:about="">
        <dc:format>image/svg+xml</dc:format>
        <dc:type
           rdf:resource="http://purl.org/dc/dcmitype/StillImage" />
      </cc:Work>
    </rdf:RDF>
  </metadata>
  <sodipodi:namedview
     pagecolor="#ffffff"
     bordercolor="#666666"
     borderopacity="1"
     objecttolerance="10"
     gridtolerance="10"
     guidetolerance="10"
     inkscape:pageopacity="0"
     inkscape:pageshadow="2"
     inkscape:window-width="1920"
     inkscape:window-height="1051"
     id="namedview27"
     showgrid="false"
     inkscape:zoom="2.5665959"
     inkscape:cx="129.87856"
     inkscape:cy="133.66475"
     inkscape:window-x="-9"
     inkscape:window-y="-9"
     inkscape:window-maximized="1"
     inkscape:current-layer="Layer_1" />
  <defs
     id="defs4">
    <style
       id="style2">.cls-1{fill:#ff69b4;}.cls-2{fill:#7f00ff;}.cls-3{fill:#ff6700;}</style>
  </defs>
  <path
     class="cls-1"
     d="M125,10a59.9955,59.9955,0,0,0-.4128,119.99c.0744-.0028.1452-.0109.2213-.0109.1211,0,.2354.01.3519.0173A59.9981,59.9981,0,0,0,125,10Z"
     transform="translate(0.11)"
     id="path6"
     style="fill:#fbf4ff;fill-opacity:1" />
  <path
     class="cls-1"
     d="M125,0,93.0316,19.2166l63.94.0019C148.782,12.4551,137.9945,6.0678,125,0Z"
     transform="translate(0.11)"
     id="path8"
     style="fill:#fbf4ff;fill-opacity:1" />
  <path
     class="cls-1"
     d="M156.9712,19.2185l-31.6087,110.744c52.6-5.099,35.9312-33.8542,97.7652-9.9625C223.1277,120,188.9424,38.437,156.9712,19.2185Z"
     transform="translate(0.11)"
     id="path10"
     style="fill:#fbf4ff;fill-opacity:1" />
  <circle
     class="cls-2"
     cx="61.0761"
     cy="179.9421"
     r="60"
     id="circle12"
     style="fill:#fbf4ff;fill-opacity:1" />
  <path
     class="cls-2"
     d="M.0657,214.4551l32.48,18.338L1.0228,177.1644A309.8,309.8,0,0,0,.0657,214.4551Z"
     transform="translate(0.11)"
     id="path14"
     style="fill:#fbf4ff;fill-opacity:1" />
  <path
     class="cls-2"
     d="M56.0853,69.9184S1.98,139.8738,1.0228,177.1644l111.9323-27.1018C82.5849,106.8145,65.7862,135.4939,56.0853,69.9184Z"
     transform="translate(0.11)"
     id="path16"
     style="fill:#fbf4ff;fill-opacity:1" />
  <circle
     class="cls-3"
     cx="190.1017"
     cy="180.0083"
     r="60"
     id="circle18"
     style="fill:#fbf4ff;fill-opacity:1" />
  <path
     class="cls-3"
     d="M249.5185,216.84l.4791-37.2965-33.6443,54.3721A145.4946,145.4946,0,0,0,249.5185,216.84Z"
     transform="translate(0.11)"
     id="path20"
     style="fill:#fbf4ff;fill-opacity:1" />
  <path
     class="cls-3"
     d="M138.81,148.7663c-23.34,47.4131,9.8833,48.3682-42.9687,88.38,0,0,87.3468,13.8451,120.5121-3.23Z"
     transform="translate(0.11)"
     id="path22"
     style="fill:#fbf4ff;fill-opacity:1" />
  <path
     class="cls-1"
     d="M154.1357,23.2464a1.2618,1.2618,0,0,1,.24.148l-.506-.3909a3.5166,3.5166,0,0,1,.2723.2424,2.5706,2.5706,0,0,0,3.5355,0l.391-.5059a2.489,2.489,0,0,0,.3413-1.2618l-.0893-.6646a2.4974,2.4974,0,0,0-.643-1.1032c-.0792-.0759-.1588-.1518-.2444-.2205-.0922-.074-.1883-.1459-.2809-.2174-.0909-.07-.1862-.1468-.2812-.2168-.0214-.0157-.0431-.0309-.0653-.0454a1.12,1.12,0,0,0-.1466-.0812,1.8606,1.8606,0,0,0-.9295-.2967,2.2449,2.2449,0,0,0-1.8471.4921,1.89,1.89,0,0,0-.6438.7014l-.2521.5972a2.5191,2.5191,0,0,0,0,1.3292l.2521.5972a2.5117,2.5117,0,0,0,.8968.8969Z"
     transform="translate(0.11)"
     id="path24"
     style="fill:#fbf4ff;fill-opacity:1" />
</svg>
