<svg width="54" height="50" viewBox="0 0 54 50" fill="none" xmlns="http://www.w3.org/2000/svg">
<g filter="url(#filter0_d)">
<path d="M14.0004 5.21256L6.70326 18.3382C6.06075 19.8527 5.51002 21.0459 6.70326 24.3043L14.6888 37.8889C15.1018 38.5926 16.5704 40 19.1405 40H34.4231C35.7081 40 37.5989 39.7981 39.6549 37.8889C39.6549 37.8155 44.9174 28.496 47.5487 23.8454C48.1453 22.7909 48.7878 20.1739 47.5487 18.3382L39.6549 5.21256C38.5994 3.74396 37.5438 2 34.4231 2H19.1405C17.4883 2 16.0564 2.09179 14.0004 5.21256Z" stroke="white" stroke-width="3"/>
<circle cx="26.8965" cy="21" r="5.5" stroke="white" stroke-width="4.97101"/>
</g>
<defs>
<filter id="filter0_d" x="0.5" y="0.5" width="53.2569" height="49" filterUnits="userSpaceOnUse" color-interpolation-filters="sRGB">
<feFlood flood-opacity="0" result="BackgroundImageFix"/>
<feColorMatrix in="SourceAlpha" type="matrix" values="0 0 0 0 0 0 0 0 0 0 0 0 0 0 0 0 0 0 127 0"/>
<feOffset dy="4"/>
<feGaussianBlur stdDeviation="2"/>
<feColorMatrix type="matrix" values="0 0 0 0 0 0 0 0 0 0 0 0 0 0 0 0 0 0 0.25 0"/>
<feBlend mode="normal" in2="BackgroundImageFix" result="effect1_dropShadow"/>
<feBlend mode="normal" in="SourceGraphic" in2="effect1_dropShadow" result="shape"/>
</filter>
</defs>
</svg>
