<svg width="56" height="45" viewBox="0 0 56 45" fill="none" xmlns="http://www.w3.org/2000/svg">
<path d="M51.8 0H4.2C3.08609 0 2.0178 0.444474 1.23015 1.23564C0.442499 2.02681 0 3.09987 0 4.21875L0 32.3438C0 33.4626 0.442499 34.5357 1.23015 35.3269C2.0178 36.118 3.08609 36.5625 4.2 36.5625H25.2V39.375H9.8C9.4287 39.375 9.0726 39.5232 8.81005 39.7869C8.5475 40.0506 8.4 40.4083 8.4 40.7812V43.5938C8.4 43.9667 8.5475 44.3244 8.81005 44.5881C9.0726 44.8518 9.4287 45 9.8 45H46.2C46.5713 45 46.9274 44.8518 47.1899 44.5881C47.4525 44.3244 47.6 43.9667 47.6 43.5938V40.7812C47.6 40.4083 47.4525 40.0506 47.1899 39.7869C46.9274 39.5232 46.5713 39.375 46.2 39.375H30.8V36.5625H51.8C52.9139 36.5625 53.9822 36.118 54.7698 35.3269C55.5575 34.5357 56 33.4626 56 32.3438V4.21875C56 3.09987 55.5575 2.02681 54.7698 1.23564C53.9822 0.444474 52.9139 0 51.8 0V0ZM50.4 30.9375H5.6V5.625H50.4V30.9375Z" fill="white"/>
<rect x="5" y="4" width="45" height="28" fill="#3154F0"/>
</svg>
